<svg xmlns="http://www.w3.org/2000/svg" viewBox="0 0 800 500">
  <defs>
    <linearGradient id="mg" x1="0%" y1="0%" x2="100%" y2="100%">
      <stop offset="0%" style="stop-color:#4361ee;stop-opacity:0.25" />
      <stop offset="100%" style="stop-color:#7209b7;stop-opacity:0.15" />
    </linearGradient>
  </defs>
  <path d="M664.7,107.9 L670.3,103.4 L672.0,101.3 L675.2,99.7 L677.4,98.1 L679.7,96.9 L682.1,94.9 L684.5,93.5 L685.5,91.0 L688.4,88.0 L690.3,84.9 L692.2,79.9 L694.2,79.1 L696.2,77.1 L697.3,79.6 L698.4,81.8 L700.0,83.3 L702.7,83.8 L705.0,84.7 L708.5,84.4 L711.1,85.1 L712.8,83.1 L711.8,78.7 L710.1,73.3 L717.4,73.2 L719.7,72.7 L722.7,71.5 L725.3,68.7 L725.9,66.8 L727.2,65.0 L728.4,64.8 L730.3,65.1 L732.1,63.6 L732.5,59.6 L733.9,55.4 L735.0,54.3 L737.0,54.8 L738.8,55.7 L739.2,59.7 L741.0,62.2 L742.2,61.8 L743.2,63.9 L742.2,59.7 L742.7,57.5 L745.6,57.0 L748.2,56.7 L750.3,54.5 L750.6,51.7 L751.9,48.1 L752.3,44.1 L751.2,40.6 L751.8,35.4 L752.4,33.5 L748.6,19.1 L749.6,16.5 L752.4,16.0 L754.9,15.4 L757.3,12.1 L758.6,10.2 L761.0,9.6 L773.1,14.4 L775.6,12.6 L775.9,8.4 L776.8,5.0 L779.5,3.0 L780.1,0.8 L780.6,-1.3 L782.1,-3.3 L783.3,-7.6 L785.4,-9.3 L785.5,-11.5 L785.7,-14.7 L787.4,-20.2 L788.6,-25.1 L789.1,-28.7 L791.5,-32.4 L795.8,-35.3 L795.8,-41.1 L795.3,-45.3 L801.2,-51.2 L798.5,-51.8 L794.6,-51.2 L788.6,-49.8 L784.8,-48.7 L781.6,-46.9 L776.5,-46.0 L772.7,-43.4 L769.8,-41.8 L768.5,-37.9 L764.4,-37.7 L760.0,-37.2 L755.7,-37.2 L751.4,-38.1 L747.9,-40.0 L744.1,-45.4 L746.4,-49.1 L745.4,-53.2 L742.4,-55.2 L743.3,-60.5 L738.6,-60.2 L734.4,-64.0 L733.5,-66.3 L730.4,-68.2 L727.4,-70.8 L724.9,-70.3 L720.9,-72.4 L719.3,-74.3 L714.7,-74.2 L710.6,-73.6 L705.9,-75.7 L703.6,-79.6 L704.6,-85.7 L701.5,-90.7 L700.6,-95.1 L698.2,-100.5 L695.8,-106.5 L695.6,-107.2 L694.7,-108.4 L694.0,-110.4 L693.4,-114.2 L691.9,-116.8 L689.7,-121.3 L690.3,-124.2 L688.5,-126.2 L688.4,-128.1 L686.6,-131.3 L683.5,-133.4 L685.3,-135.8 L683.1,-136.4 L680.7,-138.3 L680.6,-140.4 L677.8,-141.6 L674.2,-144.1 L669.8,-142.9 L667.4,-144.3 L663.7,-144.9 L659.7,-147.3 L654.8,-150.3 L652.0,-150.4 L651.6,-150.2 L648.1,-151.2 L643.8,-149.6 L638.7,-149.5 L634.3,-149.7 L629.1,-148.1 L623.3,-146.4 L618.7,-146.3 L617.1,-145.3 L613.7,-142.2 L610.3,-138.4 L606.9,-136.2 L609.0,-132.4 L614.3,-132.6 L615.6,-130.7 L614.5,-127.4 L616.6,-124.2 L615.4,-121.6 L613.5,-118.8 L610.5,-116.9 L607.2,-114.0 L606.5,-110.6 L605.0,-108.2 L603.7,-106.1 L602.8,-103.1 L599.9,-99.3 L599.1,-95.5 L597.4,-93.4 L595.7,-90.4 L596.9,-88.9 L597.9,-87.0 L597.3,-84.6 L594.7,-81.9 L589.3,-81.4 L586.4,-79.0 L583.5,-77.0 L580.6,-74.9 L574.0,-75.1 L555.5,-60.3 L552.4,-48.3 L554.4,-37.3 L565.0,-41.3 L574.6,-39.1 L582.3,-44.3 L585.5,-43.7 L595.5,-34.4 L599.2,-31.3 L603.4,-26.4 L605.5,-22.0 L604.6,-17.5 L602.4,-16.2 L598.4,-16.2 L595.1,-16.9 L591.6,-19.5 L586.4,-18.1 L582.2,-17.6 L579.0,-15.1 L575.8,-16.0 L572.6,-12.5 L565.6,-11.9 L561.8,-9.0 L558.4,-1.2 L556.3,1.8 L549.5,6.4 L536.8,7.1 L533.5,12.7 L527.8,16.7 L522.6,19.3 L511.0,16.3 L503.3,13.2 L497.6,21.9 L495.7,27.5 L498.9,33.3 L502.6,40.4 L495.5,44.7 L488.0,51.0 L483.5,57.0 L474.0,62.1 L464.3,64.6 L454.7,64.4 L446.1,65.3 L435.9,67.7 L420.5,75.5 L410.4,80.1 L401.0,77.1 L383.4,70.4 L372.6,64.9 L359.1,60.2 L335.0,61.5 L309.3,58.6 L294.9,45.8 L289.4,34.3 L289.2,29.7 L283.2,28.8 L278.2,25.5 L273.9,21.9 L266.0,16.4 L261.3,15.2 L257.1,14.3 L251.6,15.0 L245.9,13.3 L238.1,12.0 L234.8,11.9 L230.7,11.3 L229.8,8.6 L228.6,0.8 L232.1,-7.6 L232.6,-13.1 L232.7,-17.5 L231.7,-21.5 L228.3,-25.5 L226.1,-31.3 L224.5,-34.5 L221.7,-38.0 L219.9,-40.9 L214.9,-41.7 L211.4,-44.2 L207.5,-43.1 L203.8,-45.9 L201.2,-48.4 L200.3,-51.2 L197.7,-52.6 L194.1,-54.0 L194.7,-57.3 L191.3,-58.9 L190.5,-61.3 L192.1,-62.7 L191.6,-65.6 L189.4,-65.8 L186.3,-64.2 L181.8,-65.4 L178.5,-63.8 L178.3,-59.9 L176.8,-56.3 L173.1,-52.7 L166.7,-51.9 L163.0,-47.9 L161.7,-44.2 L163.6,-30.1 L161.9,-25.8 L157.6,-24.7 L154.3,-21.2 L151.0,-24.1 L146.3,-24.0 L142.0,-23.7 L138.1,-24.5 L133.8,-27.4 L131.3,-28.1 L128.2,-24.2 L126.1,-16.1 L120.6,-3.2 L119.6,2.9 L123.4,11.0 L117.3,10.7 L114.0,8.8 L110.2,9.1 L107.5,9.9 L104.3,11.4 L100.9,12.0 L96.1,13.1 L93.5,14.4 L91.1,14.8 L89.7,17.9 L92.7,18.4 L95.6,22.7 L95.6,31.5 L96.5,35.6 L99.8,46.3 L100.5,50.0 L98.7,51.0 L95.5,53.9 L95.6,57.1 L93.3,59.9 L93.2,63.9 L94.1,68.3 L92.5,71.5 L88.4,73.6 L84.5,76.6 L81.0,77.6 L77.7,80.0 L74.1,82.0 L71.3,84.2 L67.6,85.0 L65.7,88.4 L62.3,91.6 L59.3,92.7 L56.3,92.0 L51.9,91.6 L48.5,93.7 L47.4,98.7 L45.7,102.2 L43.6,104.6 L41.0,104.8 L38.5,104.8 L35.9,106.4 L35.1,103.6 L33.5,99.4 L29.3,102.8 L26.1,103.1 L23.4,103.3 L21.9,106.2 L18.5,109.7 L14.4,110.5 L11.7,114.7 L11.8,120.3 L9.6,122.7 L7.2,125.9 L8.5,128.4 L10.6,130.9 L9.2,133.7 L10.3,139.2 L14.1,140.6 L17.5,138.4 L21.2,139.5 L23.7,144.1 L23.5,149.1 L24.7,154.1 L24.4,157.6 L27.0,161.1 L26.8,164.4 L22.6,165.1 L19.9,165.7 L19.3,169.2 L22.4,170.0 L24.4,171.7 L28.0,170.3 L30.9,172.4 L32.7,175.8 L37.0,177.0 L38.7,183.9 L37.9,187.4 L40.2,190.5 L42.6,193.1 L45.9,191.5 L47.7,194.9 L52.5,197.9 L56.7,200.3 L60.1,200.2 L62.7,200.0 L64.9,200.3 L64.7,202.3 L66.1,207.3 L67.2,211.5 L67.9,216.2 L70.9,217.6 L73.7,218.7 L76.1,222.0 L76.9,224.4 L74.9,226.2 L74.0,230.5 L73.4,235.2 L75.5,240.2 L78.5,243.6 L79.5,248.1 L81.0,252.6 L80.7,257.7 L78.3,260.4 L74.6,258.4 L73.2,255.0 L70.0,256.8 L70.7,261.4 L71.1,264.9 L74.4,269.2 L74.8,274.1 L73.9,277.9 L75.6,281.6 L77.1,285.0 L80.4,288.2 L82.9,286.9 L86.8,288.4 L89.8,291.7 L93.1,295.3 L96.8,297.3 L100.9,300.4 L104.3,303.7 L106.5,306.4 L108.3,302.8 L108.5,299.5 L110.4,299.5 L114.5,299.4 L117.5,299.9 L118.8,303.9 L120.9,306.4 L124.0,308.9 L125.9,311.3 L128.6,313.3 L131.8,314.4 L134.5,319.1 L136.7,322.7 L140.0,320.4 L143.4,320.5 L144.6,323.8 L145.0,328.3 L147.5,329.5 L150.6,332.3 L154.6,334.2 L157.2,334.1 L157.2,339.3 L160.8,339.1 L164.1,338.3 L166.5,344.5 L168.8,345.2 L170.4,343.9 L173.5,347.3 L175.1,343.5 L177.4,343.8 L179.7,345.8 L183.6,349.2 L186.0,348.9 L190.0,349.4 L194.0,347.5 L196.2,346.7 L199.6,345.4 L202.3,344.2 L205.0,348.5 L204.0,353.2 L204.7,357.6 L207.3,360.3 L207.9,354.5 L210.3,348.5 L214.3,342.4 L219.0,341.9 L221.5,341.9 L225.0,344.3 L228.9,344.5 L232.0,346.8 L234.4,346.2 L238.5,346.8 L240.1,349.1 L239.5,353.7 L243.1,355.5 L246.3,359.9 L246.1,364.2 L251.6,366.5 L258.7,367.3 L268.6,364.5 L273.8,354.6 L277.7,353.4 L283.2,349.6 L288.7,343.4 L294.0,340.3 L296.6,341.7 L301.5,343.3 L303.7,344.1 L307.2,347.7 L310.5,350.6 L313.9,347.9 L314.5,344.3 L314.4,341.7 L315.7,339.7 L316.2,336.5 L319.2,336.5 L321.4,338.5 L323.8,342.3 L325.2,347.7 L326.7,354.9 L328.7,352.7 L331.1,353.6 L331.7,358.0 L331.8,362.3 L332.0,367.9 L332.6,373.2 L331.4,378.5 L331.1,382.7 L330.8,385.0 L329.4,387.5 L326.8,392.9 L324.3,394.0 L322.7,398.1 L320.0,400.9 L319.8,406.3 L316.7,409.0 L318.3,414.5 L319.6,418.3 L319.1,421.1 L316.5,424.4 L318.9,425.9 L321.2,423.8 L324.2,421.5 L327.5,421.1 L331.4,421.4 L333.0,422.8 L331.4,425.2 L333.1,429.1 L333.0,432.3 L334.3,436.3 L336.2,439.6 L340.0,440.3 L342.4,443.5 L340.7,446.2 L340.1,451.8 L338.5,457.4 L339.3,460.1 L343.0,460.3 L346.7,460.9 L347.7,465.7 L349.8,470.3 L351.4,472.6 L355.9,472.9 L359.3,469.3 L361.5,467.9 L363.5,470.2 L363.8,473.4 L365.0,478.2 L369.1,478.3 L372.0,476.8 L371.3,471.7 L371.4,469.2 L370.3,464.2 L369.1,459.7 L369.7,454.4 L372.4,454.7 L376.1,454.5 L379.4,450.0 L381.5,448.6 L385.6,450.8 L388.0,452.7 L390.8,448.0 L393.0,449.4 L396.6,448.4 L398.6,451.2 L400.6,448.1 L403.3,447.2 L406.8,446.4 L410.0,444.8 L411.4,439.6 L415.3,437.4 L418.3,437.3 L421.0,441.5 L423.7,443.0 L426.9,442.9 L429.5,445.4 L433.1,444.3 L435.0,445.4 L435.9,446.4 L436.3,446.3 L435.0,451.0 L433.4,454.9 L434.5,458.7 L434.8,463.0 L437.9,463.5 L438.9,465.7 L442.2,467.5 L444.9,468.8 L447.9,469.7 L450.7,470.3 L454.3,470.0 L456.7,471.3 L461.1,469.5 L463.7,470.2 L465.5,472.1 L467.7,473.4 L472.4,470.8 L476.2,473.3 L473.2,480.3 L474.8,489.1 L475.7,493.3 L478.5,496.1 L482.4,495.4 L483.9,490.0 L482.5,485.2 L479.8,482.0 L482.5,479.2 L485.9,477.0 L490.8,473.1 L493.6,473.6 L497.1,471.6 L499.8,469.8 L502.9,469.9 L505.0,466.2 L508.6,467.4 L512.1,465.9 L516.7,463.1 L518.0,462.0 L521.8,462.0 L523.0,458.8 L523.9,455.6 L523.5,454.2 L524.9,448.1 L527.4,453.3 L530.1,452.3 L532.8,451.3 L535.6,453.7 L536.2,450.9 L536.8,448.0 L538.6,449.9 L541.2,449.7 L544.4,447.2 L546.4,448.4 L549.8,447.6 L551.7,446.0 L554.4,446.7 L558.2,444.1 L562.3,442.5 L563.9,438.9 L566.1,434.7 L566.8,432.5 L571.5,431.7 L574.2,429.1 L576.7,425.5 L579.7,422.6 L582.7,418.1 L582.2,412.2 L586.4,411.4 L589.5,411.0 L590.8,408.2 L591.1,406.4 L592.7,405.7 L593.6,404.6 L592.8,403.3 L592.8,399.8 L592.5,398.9 L594.3,399.6 L594.5,402.0 L595.3,400.9 L597.6,400.2 L596.7,397.4 L596.4,394.8 L598.0,394.7 L599.9,395.3 L600.7,395.5 L602.1,396.7 L602.4,395.3 L604.7,394.7 L604.4,392.3 L602.8,393.9 L601.1,392.4 L601.3,390.6 L602.9,384.2 L602.1,380.5 L604.7,378.5 L604.3,375.6 L601.5,371.8 L604.8,371.9 L607.2,369.5 L604.5,372.9 L606.5,372.9 L608.4,369.8 L607.0,368.3 L609.5,366.8 L611.5,363.4 L613.6,360.1 L614.6,353.8 L617.3,350.2 L620.7,349.2 L621.3,349.3 L620.6,347.6 L620.9,343.1 L624.2,343.0 L626.8,340.9 L628.3,337.6 L626.3,332.8 L629.3,328.1 L627.3,323.3 L629.8,324.0 L632.1,323.1 L631.5,320.6 L631.9,316.8 L630.6,313.8 L634.1,309.0 L630.1,307.5 L626.6,303.1 L621.7,298.2 L622.9,293.5 L631.0,290.8 L633.2,294.1 L632.2,289.9 L627.1,279.9 L625.0,275.7 L632.0,278.2 L629.3,267.1 L625.7,262.7 L621.3,257.5 L618.3,254.1 L618.3,247.8 L617.0,242.4 L614.3,236.1 L610.9,225.4 L603.6,218.9 L599.4,214.3 L598.4,214.0 L596.3,210.9 L597.3,208.1 L598.9,204.9 L601.0,201.5 L603.5,198.2 L605.5,197.1 L606.6,195.6 L608.4,191.8 L610.4,190.5 L609.0,190.1 L607.9,187.5 L609.8,186.1 L611.1,186.6 L613.5,187.9 L615.4,187.0 L616.1,183.6 L617.4,182.2 L618.9,180.9 L617.4,178.0 L621.4,177.3 L624.4,175.6 L625.6,174.7 L628.1,174.1 L632.4,171.3 L634.1,171.8 L635.8,173.7 L638.1,172.9 L639.5,171.2 L638.4,169.4 L639.9,165.5 L641.2,163.3 L638.7,162.5 L635.5,161.5 L633.4,159.8 L627.9,161.3 L624.5,159.7 L623.3,159.2 L621.4,157.0 L617.7,154.4 L614.1,155.7 L609.9,157.7 L608.3,161.2 L604.4,163.2 L604.0,166.7 L599.9,167.9 L596.2,166.2 L594.6,165.9 L593.4,158.5 L597.1,156.2 L595.0,152.6 L588.7,148.4 L587.2,148.9 L582.9,147.5 L580.0,144.4 L577.1,142.2 L576.2,138.3 L576.1,135.0 L578.8,132.5 L581.6,127.5 L584.8,131.5 L588.0,131.7 L591.2,129.0 L592.1,129.4 L595.1,126.2 L598.3,117.4 L601.6,114.1 L604.4,113.1 L607.6,110.7 L612.8,108.3 L614.4,104.1 L615.8,101.7 L619.1,98.4 L619.0,96.6 L621.0,95.3 L625.8,95.1 L628.2,96.1 L630.8,96.6 L633.8,99.4 L635.7,102.9 L634.2,105.3 L632.8,106.0 L632.3,108.9 L629.4,113.3 L626.2,115.1 L625.2,118.9 L622.3,121.6 L622.5,124.1 L625.0,125.3 L627.4,125.3 L627.4,126.1 L627.6,128.4 L626.6,129.2 L623.4,131.4 L620.5,133.2 L621.1,137.1 L624.0,135.1 L628.5,134.1 L628.9,131.7 L631.0,131.7 L631.8,131.1 L633.9,128.9 L635.8,125.4 L638.3,123.8 L641.1,121.7 L644.9,119.7 L647.9,118.7 L649.7,117.1 L652.1,116.3 L653.9,115.6 L659.4,115.7 L660.9,114.3 L662.6,112.4 L664.4,108.6 L664.7,107.9 Z" fill="url(#mg)" stroke="#4361ee" stroke-opacity="0.4" stroke-width="0.8" />
</svg>
